<?xml version="1.0" encoding="utf-8"?>
<!-- Svg Vector Icons : http://www.onlinewebfonts.com/icon -->
<!DOCTYPE svg PUBLIC "-//W3C//DTD SVG 1.1//EN" "http://www.w3.org/Graphics/SVG/1.1/DTD/svg11.dtd">
<svg version="1.1" xmlns="http://www.w3.org/2000/svg" xmlns:xlink="http://www.w3.org/1999/xlink" x="0px" y="0px" viewBox="0 0 256 256" enable-background="new 0 0 256 256" xml:space="preserve">
<metadata> Svg Vector Icons : http://www.onlinewebfonts.com/icon </metadata>
<g><g><path fill="#000000" d="M23.5,213.5l82.7,32.8l11.6-20.6l-63.2-45.9L23.5,213.5z"/><path fill="#000000" d="M234.1,125.9c6,28.2,0.3,57,0.2,57.3l8.9,1.8c0.2-1.3,6.2-30.9-0.3-61c-5.8-27.2-23.1-59.3-71.5-62c-1.1,3.2-2.6,6.1-4.3,9C203.9,71.7,226.5,90.1,234.1,125.9L234.1,125.9z"/><path fill="#000000" d="M21.7,183.2c0-0.3-5.8-29.1,0.2-57.3C29.6,90.1,52.1,71.7,88.9,71c-1.7-2.8-3.2-5.8-4.3-9C36.1,64.6,18.8,96.7,13,124c-6.5,30.1-0.5,59.8-0.2,61L21.7,183.2L21.7,183.2z"/><path fill="#000000" d="M232.5,213.5l-31.1-33.7l-63.2,45.9l11.6,20.6L232.5,213.5z"/><path fill="#000000" d="M128,83.6c20.4,0,37-16.6,37-37s-16.6-37-37-37c-20.4,0-37,16.6-37,37S107.6,83.6,128,83.6z"/><path fill="#000000" d="M142.2,183.6l-8.5-69.7L140,96h-24.3l6.3,17.9l-8.5,69.7l14.4,14.6L142.2,183.6z"/><path fill="#000000" d="M89.3,151.8l-8.7,2.7l12.6,40.1l12.4,9L89.3,151.8z"/></g></g>
</svg>